<svg xmlns="http://www.w3.org/2000/svg" viewBox="0 0 38 61.9"><defs><style>.cls-1{fill:#ff7c79;}</style></defs><title>logo_2</title><g id="Layer_2" data-name="Layer 2"><g id="Layer_1-2" data-name="Layer 1"><path class="cls-1" d="M38,33.8H30.1l.4-3.6,1.6,2.2,1.6-1.2-2.3-3,2.9-1.5-.9-1.8-2.5,1.2.8-6.5a2.77,2.77,0,0,1,.1-.9l2.4,1.8,1.2-1.6-2.9-2.2,2.9-2.2-1.2-1.6-2.6,1.9a13.42,13.42,0,0,0-2.4-5.9l3.2-.5-.3-2-3.6.5L29,3.3,27,3l-.5,3.2a12.34,12.34,0,0,0-5.9-2.4l1.9-2.6L20.9,0,19,3.1,16.8.2,15.2,1.4,17.1,4a13.42,13.42,0,0,0-5.9,2.4l-.5-3.2-2,.3.5,3.6L5.6,6.6l-.3,2,3.2.5A12.34,12.34,0,0,0,6.1,15L3.5,13.1,2.3,14.7l2.9,2.2L2.3,19.1l1.2,1.6L6,18.8a2.77,2.77,0,0,0,.1.9l.8,6.5L4.4,25l-.9,1.8,2.9,1.5-2.3,3,1.6,1.2,1.6-2.2.4,3.6H0v8H2v1l2.1,19H33.9L36,43V41.9h2ZM8.1,19.4A5.7,5.7,0,0,1,8,18.1V16.8a11,11,0,1,1,22,0v1.3a6.6,6.6,0,0,1-.1,1.4L28.1,33.8H9.9ZM34,42.7l-.1,1.1H30v2h3.7l-1.6,14H5.9l-1.6-14H28v-2H4.1L4,42.7v-.9H34Zm2-2.9H2v-4H36Z"/><polygon class="cls-1" points="18 14.8 20 14.8 20 14.1 22.8 10.4 21.2 9.2 19 12.1 16.8 9.2 15.2 10.4 18 14.1 18 14.8"/><polygon class="cls-1" points="21.2 26.2 19 29.1 16.8 26.2 15.2 27.4 18 31.1 18 31.8 20 31.8 20 31.1 22.8 27.4 21.2 26.2"/><polygon class="cls-1" points="28.8 18.4 27.2 17.2 25 20.1 22.8 17.2 21.2 18.4 24 22.1 24 22.8 26 22.8 26 22.1 28.8 18.4"/><polygon class="cls-1" points="16.8 18.4 15.2 17.2 13 20.1 10.8 17.2 9.2 18.4 12 22.1 12 22.8 14 22.8 14 22.1 16.8 18.4"/></g></g></svg>