<svg xmlns="http://www.w3.org/2000/svg" viewBox="0 0 49.3 62"><defs><style>.cls-1{fill:#2db258;}</style></defs><title>logo_1</title><g id="Layer_2" data-name="Layer 2"><g id="Layer_1-2" data-name="Layer 1"><path class="cls-1" d="M48.7,23.1l-1.7.5V17.7l2.3-.8L48.7,15l-1.7.6V13a6.76,6.76,0,0,0-.9-3.5l2.5-1.7L47.5,6.1,44.9,7.9a6.46,6.46,0,0,0-3.8-1.8V4h-2V6.1a7.11,7.11,0,0,0-3.8,1.8L32.7,6.1,31.6,7.8l2.5,1.7a6.76,6.76,0,0,0-.9,3.5v4h-4V10a8.11,8.11,0,0,0-1.1-4.1l1.7-1.1L28.7,3.1,26.9,4.3A8.07,8.07,0,0,0,22.2,2V0h-2V2.1a8.37,8.37,0,0,0-4.7,2.3L13.7,3.2,12.6,4.9,14.3,6A6.2,6.2,0,0,0,13,10v2.6L11.3,12l-.6,1.9,2.3.8v5.9L11.3,20l-.6,1.9,2.3.8v5.9L11.3,28l-.6,1.9,2.3.8V34H0v8H5.2l4,20H32.8l4-20H42V34H29V29h1.3l.8,2.3,1.9-.6L32.4,29h5.9l.8,2.3,1.9-.6L40.4,29H42a4.88,4.88,0,0,0,4.6-3.2l2.7-.9ZM31.2,60H10.8L7.2,42H34.8ZM40,40H2V36H40Zm5-16a3,3,0,0,1-3,3H29V25H27v9H15V10a6,6,0,0,1,12,0V23h2V19h6V13a5,5,0,0,1,10,0Z"/><rect class="cls-1" x="20" y="10" width="2" height="22"/><rect class="cls-1" x="20" y="6" width="2" height="2"/><path class="cls-1" d="M39,22H31v2h9a.94.94,0,0,0,1-1V14H39Z"/><rect class="cls-1" x="39" y="10" width="2" height="2"/><rect class="cls-1" x="10" y="44" width="2" height="2"/><rect class="cls-1" x="14" y="44" width="18" height="2"/></g></g></svg>