<svg xmlns="http://www.w3.org/2000/svg" viewBox="0 0 40.1 60"><defs><style>.cls-1{fill:#6a85e5;}</style></defs><title>logo_3-2</title><g id="Layer_2" data-name="Layer 2"><g id="Layer_1-2" data-name="Layer 1"><path class="cls-1" d="M33.8,32a22.56,22.56,0,0,0,1.1-2.2l2.4-.8-.6-1.9-1.1.4a19.7,19.7,0,0,0,.4-3.4v-.3l2.3-.8-.6-1.9-1.7.6V17.8l2.3-.8-.6-1.9-1.7.6V13.3a3,3,0,0,0-.8-2.1A3,3,0,0,0,36,9.1a3,3,0,0,0-6,0,2.79,2.79,0,0,0,.6,1.8,2.18,2.18,0,0,0-.7.9l-1.3,2.5-.9-.9-1.4,1.4,1.4,1.4L26,19.4V13.7A24.87,24.87,0,0,0,25.6,9H26a2.88,2.88,0,0,0,2.1-.9A2.88,2.88,0,0,0,29,6a2.72,2.72,0,0,0-.9-2.1,2.92,2.92,0,0,0-3.9-.2,6.12,6.12,0,0,0-.5-1.2A4,4,0,0,0,20,0a4.09,4.09,0,0,0-3.7,2.4,23,23,0,0,0-1.4,4.2A3.16,3.16,0,0,0,13,5.9a3,3,0,0,0-3,3,3,3,0,0,0,3,3,4.25,4.25,0,0,0,1.1-.2c0,.6-.1,1.2-.1,1.8v5.7L12.3,16l1.4-1.4-1.4-1.4-.9.9-1.3-2.5a5.5,5.5,0,0,0-.7-.9A2.79,2.79,0,0,0,10,8.9a3,3,0,0,0-3-3,3,3,0,0,0-3,3A3.23,3.23,0,0,0,4.8,11,3.23,3.23,0,0,0,4,13.1v2.4l-1.7-.6-.6,1.9,2.3.8v3.9l-1.7-.6-.6,1.9,2.3.8V24a13.17,13.17,0,0,0,.4,3.4L3.3,27l-.6,1.9,2.4.8A24,24,0,0,0,6.2,32H0v8H40.1V32ZM13,10a.94.94,0,0,1-1-1,1,1,0,0,1,2,0A.94.94,0,0,1,13,10ZM33,8a.94.94,0,0,1,1,1,1,1,0,0,1-2,0A.94.94,0,0,1,33,8ZM25.3,5.3a1,1,0,0,1,1.4,0,1,1,0,0,1,0,1.4,1,1,0,0,1-1.4,0,1,1,0,0,1,0-1.4Zm6.4,7.3a1.24,1.24,0,0,1,2.3.6V24a14.28,14.28,0,0,1-2.5,8H21.7ZM16,13.6A26.48,26.48,0,0,1,18.1,3.2,2.12,2.12,0,0,1,20,2a2.24,2.24,0,0,1,1.9,1.2A26.48,26.48,0,0,1,24,13.6v9.5l-4,7.7-4-7.7ZM7,8A.94.94,0,0,1,8,9a.94.94,0,0,1-1,1A.94.94,0,0,1,6,9,.94.94,0,0,1,7,8ZM6,24V13.2A1.16,1.16,0,0,1,7.2,12a1.25,1.25,0,0,1,1.1.6L18.4,32H8.5A14.28,14.28,0,0,1,6,24Z"/><rect class="cls-1" x="8" y="18" width="2" height="2"/><rect class="cls-1" x="10" y="24" width="2" height="2"/><rect class="cls-1" x="8" y="28" width="2" height="2"/><rect class="cls-1" x="13" y="28" width="2" height="2"/><rect class="cls-1" x="30" y="17" width="2" height="2"/><rect class="cls-1" x="31" y="23" width="2" height="2"/><rect class="cls-1" x="26" y="26" width="2" height="2"/><rect class="cls-1" x="30" y="28" width="2" height="2"/><rect class="cls-1" x="18" y="8" width="2" height="2"/><rect class="cls-1" x="20" y="12" width="2" height="2"/><rect class="cls-1" x="18" y="18" width="2" height="2"/><rect class="cls-1" x="19" y="24" width="2" height="2"/><rect class="cls-1" x="7.45" y="52" width="25.1" height="8"/><rect class="cls-1" x="4.12" y="42" width="31.77" height="8"/></g></g></svg>